<?xml version="1.0"?>
<svg width="640" height="480" xmlns="http://www.w3.org/2000/svg" xmlns:svg="http://www.w3.org/2000/svg">
 <!-- Created with SVG-edit - http://svg-edit.googlecode.com/ -->
 <g>
  <title>Layer 1</title>
  <circle id="svg_5" r="90.077744" cy="240" cx="322" stroke-linecap="null" stroke-linejoin="null" stroke-dasharray="null" stroke-width="0" stroke="#000000" fill="#ff0000"/>
  <path id="svg_7" d="m235.024994,479.320007l32.627655,-174l108.749969,0l32.624786,174l-174.002411,0z" stroke-linecap="null" stroke-linejoin="null" stroke-dasharray="null" stroke-width="0" stroke="#000000" fill="#ff0000"/>
  <text stroke="#000000" transform="matrix(1.4412271976470947,0,0,1.2692307233810425,-42.50258864834905,-72.42306458950043) " xml:space="preserve" text-anchor="middle" font-family="serif" font-size="24" id="svg_9" y="431.030308" x="284.137045" stroke-linecap="null" stroke-linejoin="null" stroke-dasharray="null" stroke-width="0" fill="#000000">SAL</text>
  <path id="svg_10" d="m288.152679,212.941437c-13.690277,0 -24.500183,13.994904 -24.500183,13.994904s10.809906,13.999741 24.500183,13.999741c10.466248,0 24.499817,-13.999741 24.499817,-13.999741s-14.033569,-13.994904 -24.499817,-13.994904zm0,22.716934c-4.807404,0 -8.727295,-3.90976 -8.727295,-8.722031s3.919891,-8.722931 8.727295,-8.722931s8.72818,3.915512 8.72818,8.722931s-3.921143,8.722031 -8.72818,8.722031zm0,-13.811966c-2.812988,0 -5.09491,2.27655 -5.09491,5.089935c0,2.813049 2.281921,5.094757 5.09491,5.094757c2.813782,0 5.094543,-2.281708 5.094543,-5.094757c0,-2.808228 -2.280762,-5.089935 -5.094543,-5.089935z" stroke-linecap="null" stroke-linejoin="null" stroke-dasharray="null" stroke-width="0" stroke="#000000" fill="#000000"/>
  <path stroke="#000000" transform="rotate(169.6897735595703 345.42620849609375,357.37805175781244) " id="svg_11" d="m305.684296,360.016144c9.938232,0 19.265198,4.077515 26.271393,11.487183c7.025665,7.430176 10.883087,17.303772 10.883087,27.817688l15.310364,0c0,-30.547974 -23.536621,-55.386932 -52.464844,-55.386932l0,16.082062l0,0zm0.019501,-28.51944c35.384033,0 64.153961,30.445496 64.153961,67.844788l15.310364,0c0,-46.279114 -35.659241,-83.926849 -79.464325,-83.926849l0,16.082062l0,0zm21.154938,56.606049c0,6.146973 -4.741425,11.136292 -10.585999,11.136292s-10.58844,-4.989319 -10.58844,-11.136292c0,-6.146973 4.741425,-11.133728 10.58844,-11.133728s10.585999,4.986755 10.585999,11.133728z" stroke-linecap="null" stroke-linejoin="null" stroke-dasharray="null" stroke-width="0" fill="#000000"/>
 </g>
</svg>